<?xml version="1.0" standalone="no"?>
<!DOCTYPE svg PUBLIC "-//W3C//DTD SVG 20010904//EN"
 "http://www.w3.org/TR/2001/REC-SVG-20010904/DTD/svg10.dtd">
<svg version="1.0" xmlns="http://www.w3.org/2000/svg"
 width="613.000000pt" height="669.000000pt" viewBox="0 0 613.000000 669.000000"
 preserveAspectRatio="xMidYMid meet">

<g transform="translate(0.000000,669.000000) scale(0.100000,-0.100000)"
fill="#000000" stroke="none">
<path d="M1235 6169 c-180 -4 -239 -9 -273 -22 -189 -73 -300 -197 -349 -393
-14 -56 -17 -108 -15 -269 1 -210 -10 -362 -33 -455 -37 -146 -40 -288 -40
-2015 0 -1535 1 -1686 17 -1751 32 -139 123 -320 220 -438 95 -117 269 -228
458 -294 l105 -37 1660 -3 c1165 -2 1685 1 1744 8 180 24 410 121 537 228 161
135 270 314 319 522 13 56 15 242 15 1413 0 741 -3 1347 -7 1346 -5 0 -33 -31
-65 -68 -48 -58 -124 -121 -160 -133 -6 -2 -10 -281 -10 -775 l-1 -771 -30 -6
c-16 -3 -221 -6 -456 -6 -475 0 -489 -1 -620 -67 -123 -62 -226 -183 -275
-322 -18 -52 -20 -95 -26 -546 -4 -330 -10 -497 -17 -510 -6 -11 -23 -31 -38
-45 -26 -25 -29 -25 -248 -31 -122 -3 -680 -4 -1240 -2 -1133 3 -1069 -1
-1222 73 -161 77 -255 169 -333 325 -79 159 -84 187 -91 490 -3 149 -5 923 -3
1721 l3 1451 52 8 c29 5 435 9 903 10 l850 1 95 45 c159 77 348 271 463 476
27 49 69 117 92 153 23 36 64 105 90 155 32 58 73 114 119 161 110 114 64 108
830 101 432 -5 661 -11 705 -19 114 -21 129 -18 198 39 63 53 110 73 171 73
34 0 34 0 15 21 -30 34 -124 76 -210 95 -54 12 -129 18 -239 19 -88 1 -392 6
-675 10 -564 9 -657 4 -795 -41 -73 -23 -90 -25 -185 -20 -232 14 -668 18
-716 8 -45 -10 -53 -9 -92 14 -23 14 -73 37 -110 52 l-67 27 -395 0 c-217 0
-498 -3 -625 -6z m1010 -241 c28 -14 64 -41 82 -60 60 -63 61 -69 64 -461 1
-196 0 -359 -2 -362 -8 -7 -1490 -7 -1497 1 -4 4 -2 9 5 11 6 2 23 19 37 37
l25 33 -46 -8 c-26 -5 -48 -7 -51 -4 -19 19 -32 572 -14 631 25 84 143 180
247 202 20 4 275 7 568 7 l532 -1 50 -26z m803 -94 c36 -5 52 -11 52 -21 0 -9
-15 -45 -34 -82 -19 -36 -64 -127 -99 -201 -75 -155 -162 -298 -215 -353 -37
-38 -100 -83 -107 -76 -9 10 -25 313 -27 517 l-3 222 190 0 c105 0 214 -3 243
-6z m2165 -3840 c17 -10 -7 -38 -206 -242 -124 -128 -281 -291 -349 -364 -68
-73 -198 -209 -290 -301 l-168 -169 -2 334 c-5 581 -6 564 56 641 34 42 75 70
144 98 44 18 73 19 422 16 238 -2 382 -7 393 -13z m131 -300 c9 -23 7 -152 -4
-304 -10 -131 -12 -137 -56 -228 -39 -78 -62 -109 -143 -190 -105 -106 -167
-147 -281 -188 -64 -23 -101 -28 -256 -37 -100 -5 -193 -7 -208 -3 -26 6 -19
15 176 218 388 404 732 748 749 748 9 0 20 -7 23 -16z"/>
<path d="M2133 5153 c9 -2 23 -2 30 0 6 3 -1 5 -18 5 -16 0 -22 -2 -12 -5z"/>
<path d="M2848 5673 c12 -2 32 -2 45 0 12 2 2 4 -23 4 -25 0 -35 -2 -22 -4z"/>
<path d="M5333 5842 c-48 -17 -71 -34 -162 -120 -18 -18 -37 -32 -42 -32 -30
0 -123 -47 -171 -87 -66 -55 -273 -290 -392 -443 -77 -99 -189 -217 -374 -393
-101 -96 -116 -122 -116 -207 -1 -64 -2 -67 -51 -124 -79 -93 -211 -243 -305
-346 -158 -173 -365 -404 -435 -485 -120 -139 -297 -336 -396 -440 -53 -55
-105 -118 -116 -140 -11 -22 -54 -130 -96 -240 -41 -110 -103 -269 -137 -354
-34 -84 -74 -188 -90 -230 -15 -42 -44 -110 -63 -151 -55 -118 -62 -151 -43
-188 9 -18 24 -32 32 -32 9 0 55 18 103 41 47 23 119 54 159 70 40 16 98 42
130 58 31 16 134 61 227 101 191 82 410 189 470 230 22 15 61 39 86 53 37 21
61 48 114 129 37 56 134 181 214 277 80 96 195 236 255 310 60 75 166 204 235
286 70 83 156 188 192 235 92 118 239 280 254 280 7 0 24 -17 39 -38 58 -84
167 -109 286 -67 47 16 72 37 168 135 62 63 144 158 181 210 92 127 188 247
292 367 116 132 193 241 219 311 26 68 24 176 -4 230 -26 50 -83 110 -148 153
-32 22 -58 42 -58 45 0 4 12 20 27 38 37 44 73 125 73 166 -1 75 -68 178 -183
278 -134 116 -260 155 -374 114z m182 -220 c27 -19 59 -47 69 -60 11 -14 37
-42 58 -63 21 -20 38 -40 38 -43 0 -11 -32 -86 -37 -86 -3 0 -35 28 -71 61
-37 34 -105 87 -152 118 -47 30 -87 57 -90 59 -3 2 4 9 14 15 89 55 93 55 171
-1z m-287 -178 c30 -13 82 -46 116 -73 75 -60 216 -206 216 -223 -1 -7 -6 -22
-13 -33 -26 -43 -165 -225 -257 -335 -90 -109 -215 -275 -275 -367 l-27 -42
-57 48 c-104 90 -185 156 -309 250 -79 61 -119 98 -114 105 28 37 198 244 257
312 38 45 113 132 165 195 170 202 169 201 209 194 20 -3 60 -17 89 -31z m546
-477 c51 -67 30 -110 -147 -307 -47 -52 -138 -163 -201 -245 -124 -164 -199
-241 -265 -275 -91 -46 -98 9 -12 89 67 63 165 178 221 261 21 30 86 109 145
175 168 188 175 199 151 256 -7 17 48 79 70 79 7 0 24 -15 38 -33z m-1264
-455 c69 -55 174 -148 235 -205 l109 -104 -39 -45 -39 -45 -86 82 c-47 45
-157 142 -245 215 -88 73 -162 134 -165 137 -2 2 15 22 39 44 28 27 46 37 54
31 7 -5 68 -54 137 -110z m-221 -239 c38 -32 123 -103 190 -158 66 -54 121
-103 121 -107 0 -5 -29 -44 -65 -86 -36 -42 -136 -165 -223 -272 -86 -107
-213 -263 -282 -346 -69 -83 -162 -196 -206 -250 -45 -54 -119 -144 -164 -199
-45 -55 -101 -126 -123 -157 -38 -54 -57 -70 -57 -49 0 4 -55 57 -122 117
-109 98 -151 131 -275 221 l-33 24 68 82 c37 45 118 140 181 212 63 71 166
190 230 264 350 404 673 761 689 761 2 0 34 -26 71 -57z m816 -184 c26 -50 17
-82 -28 -96 -52 -17 -77 -4 -77 40 0 36 13 58 45 75 32 18 43 14 60 -19z
m-2049 -1298 c40 -28 79 -62 88 -75 8 -14 55 -55 103 -92 140 -107 137 -98 46
-152 -85 -50 -261 -131 -418 -194 -55 -21 -124 -55 -153 -74 -30 -20 -55 -34
-57 -32 -1 2 35 98 82 213 47 116 95 239 108 275 13 36 35 92 49 125 14 33 26
71 26 84 l0 25 28 -26 c15 -14 59 -48 98 -77z"/>
<path d="M1056 3773 c-52 -28 -53 -91 0 -132 26 -20 37 -21 168 -19 l140 3 19
33 c21 36 18 67 -10 100 -16 19 -30 21 -156 24 -92 2 -146 -1 -161 -9z"/>
<path d="M1623 3783 c-50 -10 -70 -90 -34 -134 18 -23 26 -24 164 -27 l144 -3
27 31 c30 37 34 78 9 109 -17 20 -30 22 -153 25 -74 2 -145 2 -157 -1z"/>
<path d="M2131 3746 c-18 -28 -20 -39 -10 -62 23 -62 28 -64 195 -64 l153 0
20 26 c28 36 27 79 -4 109 -23 24 -28 25 -179 25 l-154 0 -21 -34z"/>
<path d="M1041 3314 c-32 -40 -27 -77 14 -113 l35 -31 132 4 132 3 28 32 c33
37 36 69 7 105 l-20 26 -154 0 -154 0 -20 -26z"/>
<path d="M1601 3314 c-26 -33 -27 -85 -2 -115 19 -23 23 -24 163 -21 l143 3
28 30 c33 35 36 80 7 109 -18 18 -33 20 -169 20 l-150 0 -20 -26z"/>
<path d="M2146 3318 c-26 -36 -20 -85 13 -119 l29 -29 139 0 c132 0 141 1 160
23 39 42 45 64 28 97 -8 16 -24 34 -34 40 -11 5 -86 10 -170 10 -144 0 -151
-1 -165 -22z"/>
<path d="M1049 2871 c-17 -18 -29 -40 -29 -56 0 -16 12 -38 29 -56 l29 -29
139 0 139 0 27 28 c35 37 36 84 2 117 -23 24 -29 25 -165 25 l-142 0 -29 -29z"/>
<path d="M1625 2888 c-51 -29 -60 -89 -20 -132 24 -26 26 -26 163 -26 l138 0
27 28 c32 33 36 79 8 113 -17 21 -26 23 -157 25 -90 2 -146 -1 -159 -8z"/>
<path d="M2172 2886 c-45 -25 -54 -72 -23 -122 23 -38 48 -44 196 -44 l113 0
26 34 c31 41 33 72 6 106 -18 24 -24 25 -160 30 -79 3 -149 1 -158 -4z"/>
<path d="M1053 2410 c-30 -27 -37 -56 -22 -91 20 -50 52 -59 203 -59 l134 0
26 31 c31 37 33 77 5 113 l-20 26 -153 0 c-138 0 -154 -2 -173 -20z"/>
<path d="M1606 2399 c-14 -17 -26 -39 -26 -49 0 -10 12 -32 26 -49 l26 -31
148 0 149 0 20 29 c27 37 27 85 1 111 -18 18 -33 20 -169 20 l-149 0 -26 -31z"/>
<path d="M1046 1944 c-37 -38 -36 -84 5 -118 30 -25 34 -26 174 -26 l144 0 20
29 c29 40 27 86 -4 116 -23 24 -29 25 -168 25 -143 0 -145 0 -171 -26z"/>
<path d="M1609 1941 c-37 -38 -38 -79 -3 -112 24 -23 33 -24 164 -26 l139 -2
26 30 c32 39 33 82 0 114 -23 24 -29 25 -160 25 l-137 0 -29 -29z"/>
</g>
</svg>
